<mxfile host="app.diagrams.net" agent="Mozilla/5.0 (Macintosh; Intel Mac OS X 10_15_7) AppleWebKit/537.36 (KHTML, like Gecko) Chrome/141.0.0.0 Safari/537.36" version="28.2.8">
  <diagram name="Cloudflare Platform" id="cf-platform">
    <mxGraphModel dx="1251" dy="703" grid="1" gridSize="10" guides="1" tooltips="1" connect="1" arrows="1" fold="1" page="1" pageScale="1" pageWidth="1600" pageHeight="900" math="0" shadow="0">
      <root>
        <mxCell id="0" />
        <mxCell id="1" parent="0" />
        <mxCell id="2" value="Cloudflare: One Unified Connectivity Cloud Platform" style="text;fontSize=24;fontStyle=1;align=center;" parent="1" vertex="1">
          <mxGeometry x="400" y="20" width="800" height="40" as="geometry" />
        </mxCell>
        <mxCell id="70" value="One platform to connect and protect your entire infrastructure" style="text;fontSize=14;fontStyle=2;align=center;fontColor=#666;" parent="1" vertex="1">
          <mxGeometry x="360" y="660" width="800" height="30" as="geometry" />
        </mxCell>
      </root>
    </mxGraphModel>
  </diagram>
</mxfile>
